<svg id="Layer_1" data-name="Layer 1" xmlns="http://www.w3.org/2000/svg" viewBox="0 0 273.6 104.4"><defs><style>.cls-1,.cls-10,.cls-2,.cls-3,.cls-6{fill:none;}.cls-1,.cls-3,.cls-5{stroke:#343f49;}.cls-1,.cls-10,.cls-2,.cls-3,.cls-5,.cls-6{stroke-miterlimit:10;}.cls-10,.cls-2,.cls-6{stroke:#333e48;}.cls-2{stroke-width:2px;}.cls-3{stroke-width:0.67px;}.cls-4{font-size:4.5px;letter-spacing:-0.07em;}.cls-4,.cls-7,.cls-8,.cls-9{fill:#333e48;}.cls-4,.cls-8,.cls-9{font-family:HelveticaNeue, Helvetica Neue;}.cls-5{fill:#fbab19;stroke-width:1.5px;}.cls-8,.cls-9{font-size:4.22px;}.cls-8{letter-spacing:-0.04em;}.cls-9{letter-spacing:-0.04em;}.cls-10{stroke-width:1.41px;}</style></defs><title>IBR1700 - 4G Antenna - MC400-1200M</title><path class="cls-1" d="M235,83.75a3.6,3.6,0,0,1-3.6,3.6h-198a3.6,3.6,0,0,1-3.6-3.6V73.49a8.51,8.51,0,0,0-5.71-7.41,7,7,0,0,1-5-7v-.59a7,7,0,0,1,5-7,9.27,9.27,0,0,0,5.71-7.41v-6.8a3.6,3.6,0,0,1,3.6-3.6h198a3.6,3.6,0,0,1,3.6,3.6V44a10.34,10.34,0,0,0,5.71,7.4,7,7,0,0,1,5,7V59a7,7,0,0,1-5,7,10.34,10.34,0,0,0-5.71,7.4Z"/><path class="cls-2" d="M70.13,10a1.07,1.07,0,0,0,1.08-1.15V7.28a1.35,1.35,0,0,1,1.47-1.59l2.59,0a1.31,1.31,0,0,1,1.41,1.46V8.65s-.17,1.06.8,1.2h3.73a.94.94,0,0,0,1-1.15V7.09A1.35,1.35,0,0,1,83.63,5.5l2.59,0A1.32,1.32,0,0,1,87.64,7V8.74s-.18,1.06.79,1.19l3.26-.09a.93.93,0,0,0,1-1.15V7.09A1.35,1.35,0,0,1,94.11,5.5l2.59,0A1.32,1.32,0,0,1,98.12,7V8.47s-.18,1.06.79,1.19l2.72.19h.58a.93.93,0,0,0,1-1.15V7.09a1.35,1.35,0,0,1,1.47-1.59l2.59,0A1.32,1.32,0,0,1,108.64,7V8.74s-.18,1.06.79,1.19l3.15-.09a.94.94,0,0,0,1-1.15V7.09A1.34,1.34,0,0,1,115,5.5h2.31A1.33,1.33,0,0,1,118.72,7l.11,1.65s-.18,1.07.8,1.2l3.19-.09c1.15-.05,1.09-2.45,1.09-2.45a1.34,1.34,0,0,1,1.46-1.59l2.59,0a1.32,1.32,0,0,1,1.42,1.46l0,1.43s-.18,1.07.8,1.2H134A.93.93,0,0,0,135,8.67l0-1.21a1.35,1.35,0,0,1,1.47-1.59l2.59,0a1.31,1.31,0,0,1,1.41,1.47V8.83s-.17,1.07.8,1.2h3.07a.93.93,0,0,0,.95-1.14V7.28a1.35,1.35,0,0,1,1.47-1.59l2.59,0a1.31,1.31,0,0,1,1.41,1.46s-.17,2.5.8,2.63L155,9.73a.93.93,0,0,0,.94-1.15l.12-1.3a1.35,1.35,0,0,1,1.47-1.59l1.93,0a1.31,1.31,0,0,1,1.41,1.46s0,2.5.94,2.63l3.64,0a.92.92,0,0,0,.94-1.14l.08-1.37a1.35,1.35,0,0,1,1.47-1.59l1.93,0a1.31,1.31,0,0,1,1.41,1.46s.32,2.69,1.3,2.82h3.71a.92.92,0,0,0,.94-1.14V7.28a1.35,1.35,0,0,1,1.47-1.59l1.93,0A1.32,1.32,0,0,1,182,7.19l.07,1.43s-.18,1.07.79,1.2h3.64a.92.92,0,0,0,.94-1.14l-.07-1.39a1.35,1.35,0,0,1,1.47-1.59l2.59,0s1.1-.08,1.41,1.46c0,0,.14,2.53.76,2.57l3.13.09a.93.93,0,0,0,.94-1.15l0-1.42a1.35,1.35,0,0,1,1.47-1.59l2.12,0s1.11-.08,1.42,1.46c0,0,.37,2.52,1.34,2.66l3.6-.09a.93.93,0,0,0,.94-1.15V7.28A1.35,1.35,0,0,1,210,5.69l2.12,0s1.11-.08,1.42,1.46c0,0,.37,2.52,1.35,2.66h4.15c.27,0,.3-.66.3-.66l.09-2c0-1.38,1.51-1.6,1.51-1.6l2.42-.1s1.45,0,2.83,2.2a6.36,6.36,0,0,0,3.51,2.8,43.56,43.56,0,0,1,25.1,13.7c10.33,11.73,11,27.59,11,27.59L268.38,98l-472.19-.7,2-45.52s.67-15.86,11-27.58A43.55,43.55,0,0,1-165.7,10.52a6.37,6.37,0,0,0,3.5-2.79c1.39-2.21,2.84-2.21,2.84-2.21l2.42.11s1.5.22,1.5,1.59l.09,2s0,.65.31.66h4.15c1-.14,1.34-2.66,1.34-2.66.31-1.54,1.42-1.46,1.42-1.46l2.12,0a1.35,1.35,0,0,1,1.47,1.59V8.63a.94.94,0,0,0,.95,1.15l3.59.09c1-.14,1.35-2.66,1.35-2.66.31-1.54,1.42-1.46,1.42-1.46l2.12,0a1.35,1.35,0,0,1,1.47,1.59l-.05,1.42a.94.94,0,0,0,.95,1.15l3.13-.08c.62,0,.75-2.58.75-2.58.31-1.54,1.42-1.46,1.42-1.46l2.59,0a1.34,1.34,0,0,1,1.46,1.59l-.07,1.39a.94.94,0,0,0,.95,1.15h3.63c1-.13.8-1.19.8-1.19l.07-1.44a1.32,1.32,0,0,1,1.42-1.46l1.92,0A1.35,1.35,0,0,1-113.2,7.3V8.9a.93.93,0,0,0,1,1.14h3.71c1-.13,1.29-2.82,1.29-2.82a1.32,1.32,0,0,1,1.42-1.46l1.93,0a1.34,1.34,0,0,1,1.46,1.59l.08,1.37a.94.94,0,0,0,1,1.15l3.63,0c1-.13.94-2.63.94-2.63a1.32,1.32,0,0,1,1.42-1.46l1.93,0A1.34,1.34,0,0,1-92,7.3l.12,1.3a.94.94,0,0,0,1,1.15l3.42.09c1-.13.8-2.63.8-2.63a1.32,1.32,0,0,1,1.42-1.46l2.59,0A1.35,1.35,0,0,1-81.26,7.3V8.9A.92.92,0,0,0-80.32,10h3.08c1-.13.79-1.19.79-1.19V7.4A1.32,1.32,0,0,1-75,5.94l2.59-.05A1.35,1.35,0,0,1-71,7.48V8.7A.93.93,0,0,0-70,9.84h3.84c1-.13.8-1.19.8-1.19V7.21a1.32,1.32,0,0,1,1.42-1.46l2.59,0A1.35,1.35,0,0,1-59.88,7.3s-.06,2.4,1.09,2.45l3.19.09c1-.13.8-1.19.8-1.19L-54.7,7a1.32,1.32,0,0,1,1.42-1.46H-51A1.35,1.35,0,0,1-49.5,7.11V8.72a.93.93,0,0,0,1,1.14l3.14.1c1-.14.8-1.2.8-1.2V7a1.32,1.32,0,0,1,1.42-1.46l2.59-.05a1.34,1.34,0,0,1,1.46,1.59V8.72a.93.93,0,0,0,1,1.14h.59l2.71-.19c1-.13.8-1.19.8-1.19V7a1.32,1.32,0,0,1,1.42-1.46l2.59-.05a1.34,1.34,0,0,1,1.46,1.59V8.72a.93.93,0,0,0,.95,1.14l3.26.1c1-.14.8-1.2.8-1.2V7a1.32,1.32,0,0,1,1.42-1.46l2.59-.05a1.34,1.34,0,0,1,1.46,1.59V8.72a.93.93,0,0,0,.95,1.14h3.74c1-.14.79-1.2.79-1.2V7.21a1.32,1.32,0,0,1,1.42-1.46l2.59,0A1.35,1.35,0,0,1-7.18,7.3V8.9A1.07,1.07,0,0,0-6.1,10.05Z"/><circle class="cls-3" cx="1.06" cy="54.65" r="14.08"/><ellipse class="cls-3" cx="1.06" cy="54.65" rx="8.83" ry="8.64"/><text class="cls-4" transform="translate(-4.64 77.59)">AUX 0</text><circle class="cls-5" cx="50.93" cy="56.3" r="9"/><circle class="cls-5" cx="97.89" cy="56.3" r="9"/><circle class="cls-3" cx="133.36" cy="56.3" r="9"/><circle class="cls-5" cx="170.11" cy="56.3" r="9"/><circle class="cls-5" cx="217.22" cy="56.3" r="9"/><text class="cls-4" transform="translate(46.13 42.84)">AUX0</text><text class="cls-4" transform="translate(91.65 42.84)">MAIN1</text><text class="cls-4" transform="translate(129.05 42.84)">GPS</text><text class="cls-4" transform="translate(164.87 42.84)">AUX1</text><text class="cls-4" transform="translate(210.86 42.84)">MAIN0</text><path class="cls-6" d="M-194.13,53.79h0c0,18.79,16.56,39,35.34,39H224.85c18.79,0,34-18.92,34-37.7h0a40.87,40.87,0,0,0-10.3-26.44H-183.76C-190.1,35.48-194.13,44.53-194.13,53.79Z"/><path class="cls-6" d="M218.81,13.33H-151.82c-12.31,0-23.66,1.69-30,12.28H247.33C241.26,15.11,230.76,13.33,218.81,13.33Z"/><path class="cls-7" d="M162.07,23a7.36,7.36,0,0,1-1.3-.09,1.63,1.63,0,0,1-.75-.3,1.07,1.07,0,0,1-.36-.58,4.92,4.92,0,0,1-.12-.9,4.13,4.13,0,0,1,0-.89.92.92,0,0,1,.29-.58,1.51,1.51,0,0,1,.72-.3,7.24,7.24,0,0,1,1.29-.09l.56,0,.49,0,.45,0,0,.72L163,20h-.92a3.48,3.48,0,0,0-.53,0,.46.46,0,0,0-.28.16.65.65,0,0,0-.1.34,3.63,3.63,0,0,0,0,.56c0,.24,0,.43.05.57a.71.71,0,0,0,.13.33.54.54,0,0,0,.3.16,2.58,2.58,0,0,0,.54,0h.49l.42,0,.38,0,.06.73-.44,0-.49,0-.56,0"/><path class="cls-7" d="M164.61,19.31h1.24l.18.28.16-.08.3-.12a3.07,3.07,0,0,1,.43-.1,2.92,2.92,0,0,1,.54-.05H168l0,.78h-.59a3.34,3.34,0,0,0-.8.08l-.38.11.14,2.68H164.8Z"/><path class="cls-7" d="M168.58,21.76a1.07,1.07,0,0,1,.06-.45.78.78,0,0,1,.3-.33,1.57,1.57,0,0,1,.59-.19,4.89,4.89,0,0,1,.93-.07l.72,0,.51,0v-.22a1.08,1.08,0,0,0-.05-.28.35.35,0,0,0-.16-.16,1.1,1.1,0,0,0-.33-.09l-.56,0h-1L169,20l0-.73.66,0,.61,0h.6a7,7,0,0,1,1.25.09,2,2,0,0,1,.74.25.87.87,0,0,1,.36.43,1.89,1.89,0,0,1,.12.61l.12,2.28h-1.24l-.16-.22-.19.06-.37.1-.5.09a5.87,5.87,0,0,1-.62,0,4.23,4.23,0,0,1-.63,0,1.81,1.81,0,0,1-.54-.18,1.12,1.12,0,0,1-.39-.32,1,1,0,0,1-.16-.53Zm1.53,0a.43.43,0,0,0,.19.38,1.35,1.35,0,0,0,.64.1,2.68,2.68,0,0,0,.52,0,2.79,2.79,0,0,0,.34-.07l-.05-.83-.34,0-.52,0a1.28,1.28,0,0,0-.62.1.33.33,0,0,0-.16.35Z"/><path class="cls-7" d="M176.22,23a3.3,3.3,0,0,1-.85-.09,1.26,1.26,0,0,1-.54-.28,1,1,0,0,1-.3-.47,3.28,3.28,0,0,1-.12-.7l0-.63a2.43,2.43,0,0,1,.05-.69.93.93,0,0,1,.26-.49,1.19,1.19,0,0,1,.51-.28,2.77,2.77,0,0,1,.83-.1,5.17,5.17,0,0,1,.57,0l.46.07.35.08a.7.7,0,0,0,.19,0l-.07-1.26h1.59l.25,4.7h-1.24l-.15-.22-.22.05a3.59,3.59,0,0,1-.39.1c-.15,0-.33.07-.52.1a6.26,6.26,0,0,1-.63,0m.63-.77a4.68,4.68,0,0,0,.55,0l.35-.06-.11-2-.35-.07a3.28,3.28,0,0,0-.56,0,2.06,2.06,0,0,0-.39,0,.54.54,0,0,0-.25.13.52.52,0,0,0-.11.28,2.18,2.18,0,0,0,0,.47l0,.39a2.48,2.48,0,0,0,.07.47.69.69,0,0,0,.14.27.49.49,0,0,0,.26.12,2.25,2.25,0,0,0,.4,0"/><polygon class="cls-7" points="180.52 18.2 182.1 18.2 182.35 22.9 180.77 22.9 180.52 18.2"/><path class="cls-7" d="M191.31,24h-1.58l-.25-4.7h1.24l.15.22.21-.06.38-.1.52-.09c.2,0,.42,0,.64,0a3.06,3.06,0,0,1,.87.1,1.31,1.31,0,0,1,.54.28,1.09,1.09,0,0,1,.3.48,3.22,3.22,0,0,1,.11.69l0,.63a3,3,0,0,1,0,.69,1,1,0,0,1-.24.48,1.17,1.17,0,0,1-.52.28,2.87,2.87,0,0,1-.85.1,5.17,5.17,0,0,1-.57,0l-.47-.07-.34-.07-.2-.06Zm-.11-1.92.35.07a4.61,4.61,0,0,0,.56,0,2.17,2.17,0,0,0,.4,0,.45.45,0,0,0,.25-.12.48.48,0,0,0,.12-.27,2.28,2.28,0,0,0,0-.48l0-.39a2.48,2.48,0,0,0-.07-.47.51.51,0,0,0-.15-.27.43.43,0,0,0-.26-.13,2.37,2.37,0,0,0-.41,0,4.43,4.43,0,0,0-.55,0l-.35.06Z"/><path class="cls-7" d="M198.17,23a7.17,7.17,0,0,1-1.27-.1,1.88,1.88,0,0,1-.78-.33,1.19,1.19,0,0,1-.4-.58,3.25,3.25,0,0,1-.15-.86,2.88,2.88,0,0,1,.06-.86,1,1,0,0,1,.34-.57,1.64,1.64,0,0,1,.74-.33,7,7,0,0,1,1.27-.1,7.38,7.38,0,0,1,1.28.1,1.88,1.88,0,0,1,.78.33,1.17,1.17,0,0,1,.4.57,3.43,3.43,0,0,1,.14.86,3.23,3.23,0,0,1-.05.86,1,1,0,0,1-.34.58,1.63,1.63,0,0,1-.75.33,7,7,0,0,1-1.27.1m0-.77a2.39,2.39,0,0,0,.51,0,.45.45,0,0,0,.28-.15.56.56,0,0,0,.11-.33,5.53,5.53,0,0,0,0-.58q0-.34-.06-.57a.72.72,0,0,0-.15-.33.48.48,0,0,0-.3-.15,3.21,3.21,0,0,0-1,0,.4.4,0,0,0-.27.15.62.62,0,0,0-.11.33,3.75,3.75,0,0,0,0,.57c0,.24,0,.43.05.58a.63.63,0,0,0,.15.33.43.43,0,0,0,.28.15,2.39,2.39,0,0,0,.51,0"/><polygon class="cls-7" points="201.62 20.04 203.16 19.31 203.36 22.9 201.77 22.9 201.62 20.04"/><path class="cls-7" d="M204.41,19.31h1.24l.14.23.22-.06.4-.1a5.06,5.06,0,0,1,.53-.1,5.9,5.9,0,0,1,.63,0,2.91,2.91,0,0,1,.85.1,1.16,1.16,0,0,1,.54.28,1,1,0,0,1,.29.46,2.74,2.74,0,0,1,.11.64l.11,2.18H207.9l-.12-2.1a1.18,1.18,0,0,0-.06-.41.57.57,0,0,0-.14-.24.68.68,0,0,0-.26-.11,2.29,2.29,0,0,0-.41,0,3.16,3.16,0,0,0-.55,0l-.35.07.15,2.78H204.6Z"/><path class="cls-7" d="M214.12,22.15l-.31,0-.65,0-.26,0a.29.29,0,0,1-.17-.07.28.28,0,0,1-.1-.15,1.59,1.59,0,0,1,0-.26L212.5,20h0l0-.72h0l0-.71h-1.15l-.24.71h-.86l0,.72h.69l.09,1.64a2.36,2.36,0,0,0,.09.59.76.76,0,0,0,.27.4,1.1,1.1,0,0,0,.51.23,3.85,3.85,0,0,0,.84.08l.55,0,.47,0,.45-.05Z"/><polygon class="cls-7" points="213.92 19.31 212.47 19.31 213.25 20.03 213.96 20.03 213.92 19.31"/><path class="cls-7" d="M188.18,20.14a1.18,1.18,0,0,0-.4-.49,1.94,1.94,0,0,0-.74-.31,6,6,0,0,0-1.14-.1,5.6,5.6,0,0,0-1.19.11,1.87,1.87,0,0,0-.75.34,1.12,1.12,0,0,0-.39.58,2.63,2.63,0,0,0-.08.83,2.56,2.56,0,0,0,.18.86,1.41,1.41,0,0,0,.47.58,2.1,2.1,0,0,0,.8.33,6.23,6.23,0,0,0,1.15.1l.87,0,.71-.05.64-.07-.07-.7-.56,0-.62,0h-.76a3,3,0,0,1-.56,0,1,1,0,0,1-.38-.12.56.56,0,0,1-.22-.24,1,1,0,0,1-.09-.37h0l-.08-.55h0a1.75,1.75,0,0,1,0-.49.59.59,0,0,1,.16-.28.71.71,0,0,1,.32-.12,3,3,0,0,1,.46,0,2.55,2.55,0,0,1,.41,0,.83.83,0,0,1,.29.11.46.46,0,0,1,.18.21.94.94,0,0,1,.07.37v.11a.34.34,0,0,1,0,.1H185l.8.55h2.51c0-.06,0-.11,0-.18s0-.11,0-.19a.88.88,0,0,0,0-.23,2.06,2.06,0,0,0-.14-.69"/><path class="cls-7" d="M203.25,19s7.38-1.43,9.11-1.94l-23.06-.29s10.21.62,16.35.86a23.71,23.71,0,0,1-2.4,1.37"/><path class="cls-7" d="M210.64,16.92c-5.51-.42-22.68-1.76-27-2.14l14.88,2Z"/><line class="cls-3" x1="71.67" y1="67.17" x2="157.97" y2="67.17"/><line class="cls-3" x1="71.67" y1="69" x2="157.97" y2="69"/><polygon class="cls-3" points="90.16 70.51 84.54 70.51 84.54 80.47 92.04 80.47 92.04 72.68 90.16 70.51"/><text class="cls-8" transform="translate(93.41 77.76)">SIM-1</text><text class="cls-9" transform="translate(87.04 78.97)">1</text><line class="cls-10" x1="88.29" y1="75.49" x2="88.29" y2="73.12"/><polygon class="cls-7" points="89.69 73.53 88.29 71.1 86.89 73.53 89.69 73.53"/><polygon class="cls-3" points="132.51 70.51 126.88 70.51 126.88 80.47 134.38 80.47 134.38 72.68 132.51 70.51"/><text class="cls-8" transform="translate(135.75 77.76)">SIM-2</text><text class="cls-9" transform="translate(129.2 78.97)">2</text><line class="cls-10" x1="130.63" y1="75.49" x2="130.63" y2="73.12"/><polygon class="cls-7" points="132.04 73.53 130.63 71.1 129.23 73.53 132.04 73.53"/><circle class="cls-3" cx="26.54" cy="58.88" r="4.75"/><circle class="cls-3" cx="238.71" cy="58.88" r="4.75"/></svg>