<svg id="Layer_1" data-name="Layer 1" xmlns="http://www.w3.org/2000/svg" viewBox="0 0 241.2 108"><defs><style>.cls-1,.cls-11,.cls-2,.cls-3,.cls-4,.cls-5,.cls-6{fill:none;}.cls-1,.cls-12,.cls-2,.cls-3,.cls-4,.cls-5,.cls-6{stroke:#333e48;}.cls-1,.cls-11,.cls-12,.cls-13,.cls-2,.cls-3,.cls-4,.cls-5,.cls-6{stroke-miterlimit:10;}.cls-1{stroke-width:2px;}.cls-3{stroke-width:0.64px;}.cls-4{stroke-width:0.62px;}.cls-5{stroke-width:0.69px;}.cls-6{stroke-width:0.79px;}.cls-7{font-size:4.63px;letter-spacing:0.04em;}.cls-7,.cls-8{fill:#343f49;}.cls-10,.cls-14,.cls-16,.cls-7{font-family:HelveticaNeue, Helvetica Neue;}.cls-10,.cls-12,.cls-14,.cls-16,.cls-9{fill:#333e48;}.cls-10{font-size:5.3px;}.cls-11,.cls-13{stroke:#343f49;}.cls-11{stroke-width:0.69px;}.cls-12{stroke-width:0.28px;}.cls-13{fill:#fbab19;}.cls-14,.cls-16{font-size:5px;}.cls-14{letter-spacing:-0.09em;}.cls-15{letter-spacing:-0.07em;}.cls-16{letter-spacing:-0.07em;}</style></defs><title>IBR1700 - Ethernet</title><path class="cls-1" d="M36.78,12a1.07,1.07,0,0,0,1.08-1.15V9.21a1.35,1.35,0,0,1,1.47-1.59l2.59,0a1.33,1.33,0,0,1,1.42,1.47v1.45s-.18,1.07.79,1.2h3.74a.92.92,0,0,0,.94-1.14V9a1.35,1.35,0,0,1,1.47-1.59l2.59,0a1.32,1.32,0,0,1,1.42,1.46v1.73s-.18,1.07.8,1.2l3.26-.1a.93.93,0,0,0,.95-1.14V9a1.34,1.34,0,0,1,1.46-1.59l2.59,0a1.32,1.32,0,0,1,1.42,1.46V10.4s-.18,1.06.8,1.2l2.71.18h.59a.92.92,0,0,0,.94-1.14V9a1.35,1.35,0,0,1,1.47-1.59l2.59,0a1.32,1.32,0,0,1,1.42,1.46v1.73s-.18,1.07.8,1.2l3.14-.1a.93.93,0,0,0,1-1.14V9a1.35,1.35,0,0,1,1.47-1.59H84A1.31,1.31,0,0,1,85.37,8.9l.11,1.66s-.17,1.06.8,1.19l3.19-.09c1.15-.05,1.09-2.45,1.09-2.45A1.35,1.35,0,0,1,92,7.62l2.59,0A1.32,1.32,0,0,1,96,9.13l0,1.43s-.18,1.06.8,1.19h3.84a.92.92,0,0,0,.94-1.14l0-1.22a1.35,1.35,0,0,1,1.47-1.59l2.59,0a1.32,1.32,0,0,1,1.42,1.46v1.46s-.18,1.06.79,1.19H111a.94.94,0,0,0,1-1.15V9.21a1.35,1.35,0,0,1,1.47-1.59l2.59,0a1.33,1.33,0,0,1,1.42,1.47s-.18,2.49.79,2.62l3.43-.09a.94.94,0,0,0,1-1.15l.11-1.3a1.35,1.35,0,0,1,1.47-1.59l1.93,0a1.33,1.33,0,0,1,1.42,1.47s0,2.49.94,2.62l3.63,0a.94.94,0,0,0,.95-1.15l.07-1.37a1.35,1.35,0,0,1,1.47-1.59l1.93,0a1.33,1.33,0,0,1,1.42,1.47s.32,2.68,1.29,2.81l3.71,0a.94.94,0,0,0,.95-1.15V9.21a1.34,1.34,0,0,1,1.46-1.59l1.93,0a1.33,1.33,0,0,1,1.42,1.47l.07,1.43s-.18,1.06.8,1.19h3.63a.94.94,0,0,0,.95-1.15l-.08-1.39a1.35,1.35,0,0,1,1.47-1.59l2.59,0s1.11-.08,1.42,1.47c0,0,.13,2.52.75,2.57l3.13.08a.94.94,0,0,0,1-1.15l-.05-1.42a1.35,1.35,0,0,1,1.47-1.59l2.12,0s1.11-.08,1.42,1.47c0,0,.37,2.52,1.35,2.65l3.59-.09a.93.93,0,0,0,.95-1.14V9.21a1.34,1.34,0,0,1,1.46-1.59l2.13,0s1.1-.08,1.41,1.47c0,0,.38,2.52,1.35,2.65h4.15c.27,0,.3-.66.3-.66l.09-2c0-1.37,1.51-1.59,1.51-1.59l2.42-.1s1.45,0,2.83,2.2a6.37,6.37,0,0,0,3.51,2.79,43.51,43.51,0,0,1,25.1,13.71c10.33,11.72,11,27.58,11,27.58L235,100l-472.19-.7,2-45.51s.67-15.87,11-27.59A43.53,43.53,0,0,1-199,12.46a6.36,6.36,0,0,0,3.51-2.8c1.38-2.2,2.83-2.2,2.83-2.2l2.42.1s1.51.22,1.51,1.59l.09,2s0,.65.3.66h4.15c1-.13,1.35-2.65,1.35-2.65.31-1.55,1.41-1.46,1.41-1.46l2.13-.05a1.34,1.34,0,0,1,1.46,1.59v1.34a.93.93,0,0,0,.95,1.14l3.59.09c1-.13,1.35-2.65,1.35-2.65.31-1.55,1.42-1.46,1.42-1.46l2.12-.05A1.35,1.35,0,0,1-167,9.23l0,1.43a.93.93,0,0,0,.95,1.14l3.13-.08c.62-.05.75-2.57.75-2.57.31-1.55,1.42-1.46,1.42-1.46l2.59-.05a1.35,1.35,0,0,1,1.47,1.59l-.08,1.39a.94.94,0,0,0,.95,1.15h3.63c1-.14.8-1.2.8-1.2l.07-1.43a1.32,1.32,0,0,1,1.42-1.46l1.93-.05a1.34,1.34,0,0,1,1.46,1.59v1.6a.94.94,0,0,0,1,1.15h3.71c1-.14,1.29-2.82,1.29-2.82a1.32,1.32,0,0,1,1.42-1.46l1.93-.05a1.35,1.35,0,0,1,1.47,1.59l.07,1.37a.94.94,0,0,0,1,1.15l3.63,0c1-.14.94-2.63.94-2.63a1.32,1.32,0,0,1,1.42-1.46l1.93-.05a1.35,1.35,0,0,1,1.47,1.59l.11,1.31a.93.93,0,0,0,1,1.14l3.43.1c1-.14.8-2.63.8-2.63a1.31,1.31,0,0,1,1.41-1.46l2.59-.05a1.35,1.35,0,0,1,1.47,1.59v1.6a.94.94,0,0,0,1,1.15h3.07c1-.13.8-1.19.8-1.19V9.33a1.31,1.31,0,0,1,1.41-1.46l2.59,0a1.34,1.34,0,0,1,1.47,1.58l0,1.22a.93.93,0,0,0,.94,1.15h3.84c1-.14.8-1.2.8-1.2l0-1.43a1.31,1.31,0,0,1,1.41-1.46l2.59-.05a1.35,1.35,0,0,1,1.47,1.59s-.06,2.41,1.09,2.45l3.19.1c1-.14.8-1.2.8-1.2L-88,8.92a1.31,1.31,0,0,1,1.41-1.46h2.31a1.35,1.35,0,0,1,1.47,1.59v1.6a.93.93,0,0,0,.95,1.14l3.14.1c1-.13.8-1.2.8-1.2V9A1.32,1.32,0,0,1-76.54,7.5l2.59,0a1.35,1.35,0,0,1,1.47,1.59v1.6a.92.92,0,0,0,.94,1.14h.59l2.71-.18c1-.14.8-1.2.8-1.2V9A1.32,1.32,0,0,1-66,7.5l2.59,0A1.35,1.35,0,0,1-62,9.05v1.6A.92.92,0,0,0-61,11.79l3.27.1c1-.13.79-1.2.79-1.2V9A1.32,1.32,0,0,1-55.54,7.5l2.59,0a1.35,1.35,0,0,1,1.47,1.59v1.6a.92.92,0,0,0,.94,1.14h3.74c1-.13.8-1.19.8-1.19V9.15a1.31,1.31,0,0,1,1.41-1.46L-42,7.64a1.35,1.35,0,0,1,1.47,1.59v1.6A1.08,1.08,0,0,0-39.45,12Z"/><path class="cls-2" d="M190.75,93.22H-192.89c-18.78,0-35.34-20.25-35.34-39h0c0-18.79,16.56-36.7,35.34-36.7H190.75c18.79,0,34,19.24,34,38h0C224.77,74.3,209.54,93.22,190.75,93.22Z"/><rect class="cls-3" x="0.31" y="27.85" width="69.64" height="55.41" rx="1.33"/><path class="cls-4" d="M80.37,51.8h30.46a1.94,1.94,0,0,1,1.94,1.94V82a1.28,1.28,0,0,1-1.28,1.28H79.71A1.28,1.28,0,0,1,78.43,82V53.73A1.94,1.94,0,0,1,80.37,51.8Z"/><rect class="cls-5" x="170.53" y="66.85" width="24.73" height="8.5" rx="1.44"/><circle class="cls-6" cx="157.87" cy="71.98" r="4.32"/><text class="cls-7" transform="translate(115.45 77.75)">2.4GHz</text><text class="cls-7" transform="translate(135.33 77.75)">5GHz</text><path class="cls-8" d="M131.93,69.44a4.54,4.54,0,0,0-3.21,1.33l.4.4a4,4,0,0,1,5.62,0l.4-.4A4.52,4.52,0,0,0,131.93,69.44Z"/><path class="cls-8" d="M129.52,71.57l.4.41a2.82,2.82,0,0,1,4,0l.4-.41a3.43,3.43,0,0,0-4.82,0Z"/><path class="cls-8" d="M130.32,72.38l.41.4a1.68,1.68,0,0,1,1.2-.5,1.71,1.71,0,0,1,1.21.5l.4-.4a2.27,2.27,0,0,0-3.22,0Z"/><path class="cls-8" d="M131.13,73.18l.8.8.8-.8a1.13,1.13,0,0,0-1.6,0Z"/><circle class="cls-9" cx="126.57" cy="83.99" r="2.84"/><circle class="cls-9" cx="137.29" cy="83.99" r="2.84"/><text class="cls-10" transform="translate(96.7 32.74)">2.4/5GHz</text><polygon class="cls-11" points="94.27 35.6 85.88 40.45 77.49 35.6 77.49 25.91 85.88 21.07 94.27 25.91 94.27 35.6"/><ellipse class="cls-11" cx="85.88" cy="30.76" rx="6.56" ry="6.42"/><polygon class="cls-11" points="196.92 35.6 188.53 40.45 180.13 35.6 180.13 25.91 188.53 21.07 196.92 25.91 196.92 35.6"/><ellipse class="cls-11" cx="188.53" cy="30.76" rx="6.56" ry="6.42"/><text class="cls-10" transform="translate(151.64 32.74)">2.4/5GHz</text><polygon class="cls-11" points="145.2 35.6 136.81 40.45 128.41 35.6 128.41 25.91 136.81 21.07 145.2 25.91 145.2 35.6"/><ellipse class="cls-11" cx="136.81" cy="30.76" rx="6.56" ry="6.42"/><path class="cls-12" d="M186.29,83.74v-1a.26.26,0,0,0-.26-.25h-1a.25.25,0,0,0-.26.25V83h-.57a.76.76,0,0,1-.73-.53l-.34-1h3.71v1c0,.14.09.18.2.09l1.27-1.22a.22.22,0,0,0,0-.34L187,79.76c-.11-.09-.2-.05-.2.09v1h-4.23l.17-.52.17-.5a.77.77,0,0,1,.74-.53h.58a.78.78,0,0,0,1.51-.26.78.78,0,0,0-1.51-.26h-.58a1.28,1.28,0,0,0-1.23.88l-.15.45-.08.22-.17.52h-3.09a.78.78,0,1,0,0,.52h3.61l.4,1.19a1.28,1.28,0,0,0,1.22.88h.57v.26A.26.26,0,0,0,185,84h1A.26.26,0,0,0,186.29,83.74Z"/><polygon class="cls-11" points="6.25 68.88 7.38 68.88 7.38 72.06 12.56 72.06 12.56 75.88 14.8 75.88 14.8 78.37 24.48 78.37 24.48 75.88 26.72 75.88 26.72 72.06 31.9 72.06 31.9 68.88 33.03 68.88 33.03 63.08 31.9 63.08 31.9 58.03 26.72 58.03 24.48 58.03 14.8 58.03 12.56 58.03 7.38 58.03 7.38 63.08 6.25 63.08 6.25 68.88"/><polygon class="cls-11" points="37.55 68.88 38.68 68.88 38.68 72.06 43.86 72.06 43.86 75.88 46.1 75.88 46.1 78.37 55.78 78.37 55.78 75.88 58.02 75.88 58.02 72.06 63.2 72.06 63.2 68.88 64.33 68.88 64.33 63.08 63.2 63.08 63.2 58.03 58.02 58.03 55.78 58.03 46.1 58.03 43.86 58.03 38.68 58.03 38.68 63.08 37.55 63.08 37.55 68.88"/><polygon class="cls-13" points="82.17 69.46 83.3 69.46 83.3 72.65 88.48 72.65 88.48 76.46 90.72 76.46 90.72 78.95 100.4 78.95 100.4 76.46 102.64 76.46 102.64 72.65 107.82 72.65 107.82 69.46 108.95 69.46 108.95 63.66 107.82 63.66 107.82 58.61 102.64 58.61 100.4 58.61 90.72 58.61 88.48 58.61 83.3 58.61 83.3 63.66 82.17 63.66 82.17 69.46"/><polygon class="cls-11" points="64.33 41.49 63.2 41.49 63.2 38.31 58.02 38.31 58.02 34.49 55.78 34.49 55.78 32.01 46.1 32.01 46.1 34.49 43.86 34.49 43.86 38.31 38.68 38.31 38.68 41.49 37.55 41.49 37.55 47.29 38.68 47.29 38.68 52.35 43.86 52.35 46.1 52.35 55.78 52.35 58.02 52.35 63.2 52.35 63.2 47.29 64.33 47.29 64.33 41.49"/><polygon class="cls-11" points="33.03 41.49 31.9 41.49 31.9 38.31 26.72 38.31 26.72 34.49 24.48 34.49 24.48 32.01 14.8 32.01 14.8 34.49 12.56 34.49 12.56 38.31 7.38 38.31 7.38 41.49 6.25 41.49 6.25 47.29 7.38 47.29 7.38 52.35 12.56 52.35 14.8 52.35 24.48 52.35 26.72 52.35 31.9 52.35 31.9 47.29 33.03 47.29 33.03 41.49"/><text class="cls-14" transform="translate(90.28 89.5)">W<tspan class="cls-15" x="4.16" y="0">AN</tspan></text><text class="cls-16" transform="translate(50.94 89.5)">3</text><text class="cls-16" transform="translate(18.37 89.5)">1</text><text class="cls-16" transform="translate(50.94 24.96)">4</text><text class="cls-16" transform="translate(18.37 24.96)">2</text><path class="cls-9" d="M153.7,79.15h.82a.69.69,0,0,1,.48.17.64.64,0,0,1,.17.47.91.91,0,0,1-.09.41.45.45,0,0,1-.3.23h0a.39.39,0,0,1,.25.14.47.47,0,0,1,.11.29l0,.43a1.12,1.12,0,0,0,0,.28.19.19,0,0,0,.09.12h-.37a.2.2,0,0,1-.06-.14l0-.22,0-.4a.53.53,0,0,0-.05-.2.24.24,0,0,0-.08-.11.27.27,0,0,0-.11-.05H154v1.13h-.31ZM154,80.3h.49a.3.3,0,0,0,.16-.05.32.32,0,0,0,.13-.15.7.7,0,0,0,.05-.28.41.41,0,0,0-.12-.3.49.49,0,0,0-.34-.1H154Z"/><path class="cls-9" d="M155.54,79.15h1.32v.28h-1v.79h.94v.28h-.94v.91h1v.28h-1.36Z"/><path class="cls-9" d="M158.27,79.81a.57.57,0,0,0-.09-.34.38.38,0,0,0-.3-.11.41.41,0,0,0-.31.1.5.5,0,0,0-.07.51.41.41,0,0,0,.12.14.42.42,0,0,0,.16.09l.22.08.26.09a.82.82,0,0,1,.2.12.48.48,0,0,1,.14.2.67.67,0,0,1,.06.3.87.87,0,0,1-.07.35.65.65,0,0,1-.19.24.58.58,0,0,1-.25.12.9.9,0,0,1-.28,0,.73.73,0,0,1-.6-.21,1,1,0,0,1-.17-.64h.31a1.77,1.77,0,0,0,0,.24.49.49,0,0,0,.06.17.34.34,0,0,0,.15.14.6.6,0,0,0,.26,0,.44.44,0,0,0,.31-.13.41.41,0,0,0,.13-.32.46.46,0,0,0,0-.21.53.53,0,0,0-.12-.14.51.51,0,0,0-.16-.09l-.22-.08-.27-.1a1,1,0,0,1-.19-.12.62.62,0,0,1-.15-.2.85.85,0,0,1-.05-.3.89.89,0,0,1,0-.22.61.61,0,0,1,.11-.23.62.62,0,0,1,.23-.18.82.82,0,0,1,.37-.07.73.73,0,0,1,.54.18.8.8,0,0,1,.18.53Z"/><path class="cls-9" d="M159,79.15h1.32v.28h-1v.79h.94v.28h-.94v.91h1v.28H159Z"/><path class="cls-9" d="M161.4,81.69h-.32V79.43h-.63v-.28H162v.28h-.64Z"/></svg>