<svg id="Layer_1" data-name="Layer 1" xmlns="http://www.w3.org/2000/svg" viewBox="0 0 273.6 104.4"><defs><style>.cls-1,.cls-2,.cls-4{fill:none;}.cls-1,.cls-4,.cls-6{stroke:#333e48;}.cls-1,.cls-2,.cls-4,.cls-6{stroke-miterlimit:10;}.cls-1,.cls-6{stroke-width:2px;}.cls-2{stroke:#343f49;stroke-width:0.67px;}.cls-3{font-size:4.5px;font-family:HelveticaNeue, Helvetica Neue;letter-spacing:-0.07em;}.cls-3,.cls-5{fill:#333e48;}.cls-6{fill:#fbb040;}</style></defs><title>IBR1700 - MC400-1200M - Insert</title><path class="cls-1" d="M70.73,10.51a1.07,1.07,0,0,0,1.08-1.15V7.76a1.35,1.35,0,0,1,1.47-1.59l2.59,0a1.32,1.32,0,0,1,1.42,1.46V9.13s-.18,1.06.79,1.2h3.74a.93.93,0,0,0,.94-1.15V7.57A1.35,1.35,0,0,1,84.23,6l2.59,0a1.32,1.32,0,0,1,1.42,1.46V9.22s-.18,1.06.79,1.19l3.27-.09a.93.93,0,0,0,.94-1.15V7.57A1.35,1.35,0,0,1,94.71,6L97.3,6a1.32,1.32,0,0,1,1.42,1.46V9s-.18,1.06.8,1.19l2.71.19h.59a.93.93,0,0,0,.94-1.15V7.57A1.35,1.35,0,0,1,105.23,6l2.59,0a1.32,1.32,0,0,1,1.42,1.46V9.22s-.18,1.06.8,1.19l3.14-.09a.94.94,0,0,0,.95-1.15V7.57A1.35,1.35,0,0,1,115.6,6h2.31a1.32,1.32,0,0,1,1.41,1.47l.11,1.65s-.17,1.07.8,1.2l3.19-.09c1.15-.05,1.09-2.45,1.09-2.45A1.35,1.35,0,0,1,126,6.17l2.59,0A1.31,1.31,0,0,1,130,7.67l0,1.43s-.18,1.07.8,1.2h3.84a.92.92,0,0,0,.94-1.14l0-1.22a1.35,1.35,0,0,1,1.47-1.59l2.59,0a1.33,1.33,0,0,1,1.42,1.47V9.31s-.18,1.07.79,1.2h3.07a.93.93,0,0,0,.95-1.14V7.76a1.35,1.35,0,0,1,1.47-1.59l2.59,0a1.31,1.31,0,0,1,1.41,1.46s-.17,2.5.8,2.63l3.43-.09a.94.94,0,0,0,.95-1.15l.11-1.3a1.35,1.35,0,0,1,1.47-1.59l1.93,0a1.32,1.32,0,0,1,1.42,1.46s0,2.5.94,2.63l3.63,0a.94.94,0,0,0,1-1.15l.07-1.37a1.35,1.35,0,0,1,1.47-1.59l1.93,0a1.32,1.32,0,0,1,1.42,1.46s.32,2.69,1.29,2.82h3.71a.93.93,0,0,0,1-1.14V7.76a1.34,1.34,0,0,1,1.46-1.59l1.93,0a1.32,1.32,0,0,1,1.42,1.46l.07,1.43s-.18,1.07.8,1.2h3.63a.93.93,0,0,0,1-1.14L188,7.76a1.35,1.35,0,0,1,1.47-1.59l2.59,0s1.11-.08,1.42,1.46c0,0,.13,2.53.75,2.57l3.13.09a.94.94,0,0,0,.95-1.15l0-1.42a1.35,1.35,0,0,1,1.47-1.59l2.12,0s1.11-.08,1.42,1.46c0,0,.37,2.52,1.35,2.66l3.59-.09a.94.94,0,0,0,.95-1.15V7.76a1.34,1.34,0,0,1,1.46-1.59l2.13,0s1.1-.08,1.41,1.46c0,0,.38,2.52,1.35,2.66h4.15c.27,0,.3-.66.3-.66l.09-2c0-1.37,1.51-1.6,1.51-1.6L224,6s1.45,0,2.83,2.2a6.36,6.36,0,0,0,3.51,2.8,43.51,43.51,0,0,1,25.1,13.71c10.33,11.72,11,27.58,11,27.58L269,98.51l-472.19-.7,2-45.52s.67-15.86,11-27.58A43.51,43.51,0,0,1-165.1,11a6.37,6.37,0,0,0,3.51-2.79c1.38-2.2,2.83-2.2,2.83-2.2l2.42.1s1.51.22,1.51,1.59l.09,2s0,.65.3.66h4.15c1-.13,1.35-2.66,1.35-2.66.31-1.54,1.41-1.46,1.41-1.46l2.13,0a1.34,1.34,0,0,1,1.46,1.59V9.11a.94.94,0,0,0,.95,1.15l3.59.09c1-.13,1.35-2.66,1.35-2.66.31-1.54,1.42-1.46,1.42-1.46l2.12,0A1.35,1.35,0,0,1-133,7.78l-.05,1.42a.94.94,0,0,0,1,1.15l3.13-.08c.62,0,.75-2.58.75-2.58.31-1.54,1.42-1.46,1.42-1.46l2.59,0a1.35,1.35,0,0,1,1.47,1.59l-.08,1.39a.94.94,0,0,0,1,1.15h3.63c1-.13.8-1.19.8-1.19l.07-1.44A1.32,1.32,0,0,1-116,6.23l1.93,0a1.34,1.34,0,0,1,1.46,1.59v1.6a.94.94,0,0,0,.95,1.15l3.71,0c1-.13,1.29-2.82,1.29-2.82a1.32,1.32,0,0,1,1.42-1.46l1.93,0a1.35,1.35,0,0,1,1.47,1.59l.07,1.37a.94.94,0,0,0,1,1.15l3.63,0c1-.13.94-2.63.94-2.63a1.32,1.32,0,0,1,1.42-1.46l1.93,0a1.35,1.35,0,0,1,1.47,1.59l.11,1.3a.94.94,0,0,0,1,1.15l3.43.09c1-.13.79-2.63.79-2.63a1.32,1.32,0,0,1,1.42-1.46l2.59,0a1.35,1.35,0,0,1,1.47,1.59v1.6a.94.94,0,0,0,1,1.15h3.07c1-.13.79-1.19.79-1.19V7.88a1.32,1.32,0,0,1,1.42-1.46l2.59,0A1.35,1.35,0,0,1-70.37,8l0,1.22a.92.92,0,0,0,.94,1.14h3.84c1-.13.8-1.19.8-1.19l0-1.44a1.31,1.31,0,0,1,1.41-1.46l2.59,0a1.35,1.35,0,0,1,1.47,1.59s-.06,2.4,1.09,2.45l3.19.09c1-.13.8-1.19.8-1.19l.11-1.66A1.31,1.31,0,0,1-52.68,6h2.31A1.34,1.34,0,0,1-48.9,7.59V9.2a.93.93,0,0,0,.95,1.14l3.14.1c1-.14.8-1.2.8-1.2V7.51a1.32,1.32,0,0,1,1.42-1.46L-40,6a1.34,1.34,0,0,1,1.47,1.58V9.2a.92.92,0,0,0,.94,1.14H-37l2.71-.19c1-.13.8-1.19.8-1.19V7.51a1.32,1.32,0,0,1,1.42-1.46l2.59,0A1.34,1.34,0,0,1-28,7.59V9.2a.93.93,0,0,0,.95,1.14l3.27.1c1-.14.79-1.2.79-1.2V7.51a1.32,1.32,0,0,1,1.42-1.46L-19,6a1.34,1.34,0,0,1,1.47,1.58V9.2a.92.92,0,0,0,.94,1.14h3.74c1-.13.79-1.2.79-1.2V7.69a1.32,1.32,0,0,1,1.42-1.46l2.59,0A1.35,1.35,0,0,1-6.58,7.78v1.6A1.07,1.07,0,0,0-5.5,10.53Z"/><circle class="cls-2" cx="1.66" cy="55.13" r="14.08"/><ellipse class="cls-2" cx="1.66" cy="55.13" rx="8.83" ry="8.64"/><text class="cls-3" transform="translate(-1.58 78.07)">GPS</text><path class="cls-2" d="M235.64,84.23a3.6,3.6,0,0,1-3.6,3.6h-198a3.6,3.6,0,0,1-3.6-3.6V74a8.51,8.51,0,0,0-5.71-7.41,7,7,0,0,1-5-7V59a7,7,0,0,1,5-7,9.27,9.27,0,0,0,5.71-7.41v-6.8a3.6,3.6,0,0,1,3.6-3.6H232a3.6,3.6,0,0,1,3.6,3.6v6.74a10.34,10.34,0,0,0,5.71,7.4,7,7,0,0,1,5,7v.59a7,7,0,0,1-5,7,10.34,10.34,0,0,0-5.71,7.4Z"/><path class="cls-4" d="M-193.53,54.27h0c0,18.79,16.56,39,35.34,39H225.45c18.79,0,34-18.92,34-37.7h0a40.83,40.83,0,0,0-10.31-26.44H-183.16C-189.49,36-193.53,45-193.53,54.27Z"/><path class="cls-4" d="M219.41,13.81H-151.21c-12.32,0-23.67,1.69-30,12.28H247.93C241.87,15.59,231.36,13.81,219.41,13.81Z"/><path class="cls-5" d="M162.67,23.45a7.44,7.44,0,0,1-1.3-.09,1.68,1.68,0,0,1-.75-.3,1.05,1.05,0,0,1-.35-.58,4.11,4.11,0,0,1-.13-.89,5,5,0,0,1,0-.9.92.92,0,0,1,.29-.58,1.51,1.51,0,0,1,.72-.3,7.31,7.31,0,0,1,1.29-.09l.57,0,.49,0,.44,0,0,.72-.38,0h-.92a3.48,3.48,0,0,0-.53,0,.46.46,0,0,0-.28.16.68.68,0,0,0-.1.34c0,.14,0,.33,0,.57s0,.42.05.56a.63.63,0,0,0,.14.33.48.48,0,0,0,.3.16,2.47,2.47,0,0,0,.53,0h.5l.41,0,.38,0,.06.73-.44,0-.49,0-.56,0"/><path class="cls-5" d="M165.22,19.79h1.24l.17.28.16-.08.3-.12a3.45,3.45,0,0,1,.43-.1,2.92,2.92,0,0,1,.54-.05h.56l0,.78h-.59a3.34,3.34,0,0,0-.8.08l-.38.11.15,2.68h-1.61Z"/><path class="cls-5" d="M169.18,22.24a.93.93,0,0,1,.07-.45.7.7,0,0,1,.29-.33,1.64,1.64,0,0,1,.59-.19,4.89,4.89,0,0,1,.93-.07l.72,0,.51,0V21a.68.68,0,0,0-.05-.27.3.3,0,0,0-.16-.17,1.1,1.1,0,0,0-.33-.09l-.56,0h-1l-.63,0,0-.73.66,0,.61,0h.61a6.85,6.85,0,0,1,1.24.09,1.93,1.93,0,0,1,.74.25.94.94,0,0,1,.37.43,2.21,2.21,0,0,1,.11.61l.12,2.28h-1.24l-.15-.22-.2.06-.37.1-.5.09a5.7,5.7,0,0,1-.62,0,4.46,4.46,0,0,1-.63-.05,2.14,2.14,0,0,1-.54-.17,1.35,1.35,0,0,1-.38-.33,1,1,0,0,1-.17-.53Zm1.53,0a.46.46,0,0,0,.19.38,1.38,1.38,0,0,0,.64.1,2.68,2.68,0,0,0,.52,0,2.42,2.42,0,0,0,.34-.07l0-.83-.35,0-.52,0a1.31,1.31,0,0,0-.62.1.35.35,0,0,0-.16.35Z"/><path class="cls-5" d="M176.82,23.45a3.35,3.35,0,0,1-.85-.09,1.26,1.26,0,0,1-.54-.28,1,1,0,0,1-.3-.47,2.78,2.78,0,0,1-.11-.7l0-.63a2.43,2.43,0,0,1,.05-.69.93.93,0,0,1,.26-.49,1.25,1.25,0,0,1,.51-.28,2.81,2.81,0,0,1,.83-.1,5.17,5.17,0,0,1,.57,0l.47.07.34.08.19.05-.07-1.27h1.59l.25,4.7h-1.24l-.15-.22-.21.06-.39.09-.53.1a6.26,6.26,0,0,1-.63,0m.63-.77a4.56,4.56,0,0,0,.55,0l.35-.06-.11-2-.35-.07a3.28,3.28,0,0,0-.56,0,2.13,2.13,0,0,0-.39,0,.54.54,0,0,0-.25.13.61.61,0,0,0-.11.28,1.75,1.75,0,0,0,0,.47l0,.39a2.58,2.58,0,0,0,.06.47.69.69,0,0,0,.14.27.52.52,0,0,0,.26.12,2.25,2.25,0,0,0,.4,0"/><polygon class="cls-5" points="181.12 18.68 182.7 18.68 182.95 23.38 181.37 23.38 181.12 18.68"/><path class="cls-5" d="M191.91,24.49h-1.58l-.25-4.7h1.25l.14.22.21-.06.38-.1.53-.09a6.26,6.26,0,0,1,.63,0,3.06,3.06,0,0,1,.87.1,1.36,1.36,0,0,1,.55.28,1.17,1.17,0,0,1,.29.48,3.22,3.22,0,0,1,.11.69l0,.63a3,3,0,0,1,0,.69.93.93,0,0,1-.25.48,1.13,1.13,0,0,1-.51.28,2.94,2.94,0,0,1-.86.1,5.17,5.17,0,0,1-.57,0l-.46-.07-.35-.07-.2-.05Zm-.11-1.92.35.07a4.61,4.61,0,0,0,.56,0,2.37,2.37,0,0,0,.41,0,.41.41,0,0,0,.37-.39,2.4,2.4,0,0,0,0-.48l0-.39a1.87,1.87,0,0,0-.07-.47.57.57,0,0,0-.14-.27.49.49,0,0,0-.27-.13,2.29,2.29,0,0,0-.41,0,4.58,4.58,0,0,0-.55,0l-.35.06Z"/><path class="cls-5" d="M198.78,23.45a7.29,7.29,0,0,1-1.28-.1,1.93,1.93,0,0,1-.78-.33,1.19,1.19,0,0,1-.4-.58,3.24,3.24,0,0,1-.15-.85,3.3,3.3,0,0,1,.06-.87,1,1,0,0,1,.34-.57,1.68,1.68,0,0,1,.75-.33,7,7,0,0,1,1.26-.1,7.29,7.29,0,0,1,1.28.1,1.88,1.88,0,0,1,.78.33,1.11,1.11,0,0,1,.4.57,3,3,0,0,1,.14.87,3.18,3.18,0,0,1-.05.85,1,1,0,0,1-.33.58,1.74,1.74,0,0,1-.75.33,7.17,7.17,0,0,1-1.27.1m0-.77a2.29,2.29,0,0,0,.5,0,.43.43,0,0,0,.28-.15.56.56,0,0,0,.11-.33,5.36,5.36,0,0,0,0-.57,3.84,3.84,0,0,0-.06-.58.63.63,0,0,0-.15-.33.48.48,0,0,0-.3-.15,2.23,2.23,0,0,0-.5,0,2.27,2.27,0,0,0-.51,0,.4.4,0,0,0-.27.15.61.61,0,0,0-.1.33,5.53,5.53,0,0,0,0,.58,3.84,3.84,0,0,0,.06.57.56.56,0,0,0,.14.33.45.45,0,0,0,.29.15,2.27,2.27,0,0,0,.51,0"/><polygon class="cls-5" points="202.22 20.52 203.77 19.79 203.96 23.38 202.37 23.38 202.22 20.52"/><path class="cls-5" d="M205,19.79h1.24l.15.23.21-.06c.11,0,.24-.07.4-.1l.53-.1a6.26,6.26,0,0,1,.63,0,2.91,2.91,0,0,1,.85.1,1.25,1.25,0,0,1,.55.28,1,1,0,0,1,.28.46,2.3,2.3,0,0,1,.11.64l.12,2.18H208.5l-.11-2.1a2,2,0,0,0-.06-.41.58.58,0,0,0-.15-.24.62.62,0,0,0-.26-.11,2.17,2.17,0,0,0-.4,0,3.09,3.09,0,0,0-.55,0l-.35.07.15,2.78H205.2Z"/><path class="cls-5" d="M214.73,22.63l-.32,0-.64,0a1.06,1.06,0,0,1-.27,0,.29.29,0,0,1-.17-.07.36.36,0,0,1-.1-.15,1.59,1.59,0,0,1,0-.26l-.09-1.67h0l0-.72h0l0-.71h-1.14l-.24.71h-.87l0,.72h.7l.08,1.64a2.88,2.88,0,0,0,.1.59.74.74,0,0,0,.26.4,1.1,1.1,0,0,0,.51.23,3.89,3.89,0,0,0,.85.08l.54,0,.47,0,.46,0Z"/><polygon class="cls-5" points="214.52 19.79 213.08 19.79 213.86 20.51 214.56 20.51 214.52 19.79"/><path class="cls-5" d="M188.78,20.62a1.11,1.11,0,0,0-.4-.49,1.94,1.94,0,0,0-.74-.31,5.87,5.87,0,0,0-1.14-.1,5.6,5.6,0,0,0-1.19.11,1.87,1.87,0,0,0-.75.34,1.12,1.12,0,0,0-.39.58,2.69,2.69,0,0,0-.07.84,2.14,2.14,0,0,0,.18.85,1.31,1.31,0,0,0,.46.58,2.17,2.17,0,0,0,.8.33,6.23,6.23,0,0,0,1.15.1l.88,0,.7-.05.64-.07-.06-.7-.57,0-.62,0h-.75a3,3,0,0,1-.57,0,1,1,0,0,1-.38-.12.64.64,0,0,1-.22-.24.81.81,0,0,1-.08-.37h0l-.07-.55h0a1.78,1.78,0,0,1,0-.49.53.53,0,0,1,.17-.28.67.67,0,0,1,.31-.12,3,3,0,0,1,.46,0,2.55,2.55,0,0,1,.41,0,.76.76,0,0,1,.29.11.46.46,0,0,1,.18.21,1.13,1.13,0,0,1,.08.37v.21h-1.92l.8.55h2.51c0-.06,0-.11,0-.18a1,1,0,0,0,0-.19.88.88,0,0,0,0-.23,2.06,2.06,0,0,0-.14-.69"/><path class="cls-5" d="M203.85,19.48s7.39-1.43,9.11-1.94l-23.06-.29s10.21.62,16.36.86a24.74,24.74,0,0,1-2.41,1.37"/><path class="cls-5" d="M211.25,17.4c-5.51-.42-22.69-1.76-27-2.14,0,0,10.17,1.38,14.88,2Z"/><circle class="cls-2" cx="27.15" cy="59.36" r="4.75"/><circle class="cls-2" cx="239.32" cy="59.36" r="4.75"/><polygon class="cls-4" points="37.06 40.25 229.1 40.25 229.1 60.09 232.54 60.09 232.54 71.34 228.97 71.34 228.97 74.51 37.06 74.51 37.06 71.13 33.35 71.13 33.35 60 36.93 60 37.06 40.25"/><polygon class="cls-6" points="40.15 44.68 225.69 44.68 225.74 62.42 229.48 62.42 229.48 68.79 36.41 68.79 36.41 62.42 40.17 62.42 40.15 44.68"/><circle class="cls-4" cx="214.56" cy="53.35" r="5.6"/><circle class="cls-4" cx="134.13" cy="53.35" r="5.6"/><circle class="cls-4" cx="49.17" cy="53.35" r="5.6"/><circle class="cls-4" cx="97.29" cy="53.35" r="5.6"/><circle class="cls-4" cx="171.26" cy="53.35" r="5.6"/></svg>